HIERARCHY
ROOT Hips
{
	OFFSET 0.000000 0.000000 0.000000
	CHANNELS 6 Xposition Yposition Zposition Xrotation Yrotation Zrotation
	JOINT LeftUpLeg_virtual
	{
		OFFSET 0.000000 0.000000 0.000000
		CHANNELS 3 Xrotation Yrotation Zrotation
		JOINT LeftUpLeg
		{
			OFFSET 15.427100 -6.655098 0.678600
			CHANNELS 3 Xrotation Yrotation Zrotation
			JOINT LeftLeg
			{
				OFFSET 4.081073 -39.591068 13.024000
				CHANNELS 3 Xrotation Yrotation Zrotation
				JOINT LeftFoot
				{
					OFFSET -4.081074 -37.707932 -15.979700
					CHANNELS 3 Xrotation Yrotation Zrotation
					JOINT LeftToeBase
					{
						OFFSET 5.346399 -15.068900 20.645000
						CHANNELS 3 Xrotation Yrotation Zrotation
						JOINT LeftToe_End
						{
							OFFSET 2.754700 0.931300 11.300900
							CHANNELS 3 Xrotation Yrotation Zrotation
							End Site
							{
								OFFSET 0 0 0
							}
						}
					}
				}
			}
		}
	}
	JOINT RightUpLeg_virtual
	{
		OFFSET 0.000000 0.000000 0.000000
		CHANNELS 3 Xrotation Yrotation Zrotation
		JOINT RightUpLeg
		{
			OFFSET -15.569500 -6.655098 0.678600
			CHANNELS 3 Xrotation Yrotation Zrotation
			JOINT RightLeg
			{
				OFFSET -4.081825 -39.591045 13.023800
				CHANNELS 3 Xrotation Yrotation Zrotation
				JOINT RightFoot
				{
					OFFSET 4.081824 -37.707954 -15.979600
					CHANNELS 3 Xrotation Yrotation Zrotation
					JOINT RightToeBase
					{
						OFFSET -5.346400 -15.068900 20.645000
						CHANNELS 3 Xrotation Yrotation Zrotation
						JOINT RightToe_End
						{
							OFFSET -2.754700 0.931300 11.300900
							CHANNELS 3 Xrotation Yrotation Zrotation
							End Site
							{
								OFFSET 0 0 0
							}
						}
					}
				}
			}
		}
	}
	JOINT Spine_virtual
	{
		OFFSET 0.000000 0.000000 0.000000
		CHANNELS 3 Xrotation Yrotation Zrotation
		JOINT Spine
		{
			OFFSET -0.279200 12.230698 -2.892100
			CHANNELS 3 Xrotation Yrotation Zrotation
			JOINT Spine1
			{
				OFFSET -0.232667 10.192268 -1.242267
				CHANNELS 3 Xrotation Yrotation Zrotation
				JOINT Spine1_split
				{
					OFFSET -0.232667 10.192268 -1.242267
					CHANNELS 3 Xrotation Yrotation Zrotation
					JOINT Spine2
					{
						OFFSET -0.232667 10.192268 -1.242267
						CHANNELS 3 Xrotation Yrotation Zrotation
						JOINT Neck_virtual
						{
							OFFSET 0.000000 0.000000 0.000000
							CHANNELS 3 Xrotation Yrotation Zrotation
							JOINT Neck
							{
								OFFSET -0.418800 17.814194 8.416900
								CHANNELS 3 Xrotation Yrotation Zrotation
								JOINT Head
								{
									OFFSET 0.000000 7.031097 3.806800
									CHANNELS 3 Xrotation Yrotation Zrotation
									JOINT HeadTop_End
									{
										OFFSET 0.000000 24.646606 12.978600
										CHANNELS 3 Xrotation Yrotation Zrotation
										End Site
										{
											OFFSET 0 0 0
										}
									}
								}
							}
						}
						JOINT LeftShoulder_virtual
						{
							OFFSET 0.000000 0.000000 0.000000
							CHANNELS 3 Xrotation Yrotation Zrotation
							JOINT LeftShoulder
							{
								OFFSET 8.476499 7.247704 -3.868750
								CHANNELS 3 Xrotation Yrotation Zrotation
								JOINT LeftShoulder_split
								{
									OFFSET 8.476499 7.247704 -3.868750
									CHANNELS 3 Xrotation Yrotation Zrotation
									JOINT LeftArm
									{
										OFFSET 9.308998 -2.777710 0.208600
										CHANNELS 3 Xrotation Yrotation Zrotation
										JOINT LeftForeArm
										{
											OFFSET 29.972298 0.000000 0.000000
											CHANNELS 3 Xrotation Yrotation Zrotation
											JOINT LeftHand
											{
												OFFSET 26.026505 0.000000 0.000000
												CHANNELS 3 Xrotation Yrotation Zrotation
												End Site
												{
													OFFSET 0 0 0
												}
											}
										}
									}
								}
							}
						}
						JOINT RightShoulder_virtual
						{
							OFFSET 0.000000 0.000000 0.000000
							CHANNELS 3 Xrotation Yrotation Zrotation
							JOINT RightShoulder
							{
								OFFSET -7.570500 7.247704 -3.868750
								CHANNELS 3 Xrotation Yrotation Zrotation
								JOINT RightShoulder_split
								{
									OFFSET -7.570500 7.247704 -3.868750
									CHANNELS 3 Xrotation Yrotation Zrotation
									JOINT RightArm
									{
										OFFSET -9.308998 -2.777710 0.208500
										CHANNELS 3 Xrotation Yrotation Zrotation
										JOINT RightForeArm
										{
											OFFSET -29.972300 0.000000 0.000000
											CHANNELS 3 Xrotation Yrotation Zrotation
											JOINT RightHand
											{
												OFFSET -26.026505 0.000000 0.000000
												CHANNELS 3 Xrotation Yrotation Zrotation
												End Site
												{
													OFFSET 0 0 0
												}
											}
										}
									}
								}
							}
						}
					}
				}
			}
		}
	}
}
MOTION
Frames: 4
Frame Time: 0.03333333
4.834606 95.122604 -3.984526 0.000000 0.000000 0.000000 -2.004158 11.179084 -1.364115 -31.469858 -11.392078 2.536102 42.901753 6.349314 -5.016087 30.378523 -4.037451 4.087542 -24.412225 2.075211 -2.882137 0.000000 0.000000 0.000000 -3.420672 11.555910 -0.890756 -10.903811 -8.416996 6.904552 28.933610 0.902003 1.103151 -1.309043 -13.709820 -2.906717 -16.979092 3.187072 -7.905281 0.000000 0.000000 0.000000 -4.517996 14.214743 -0.569517 9.578126 -1.317754 -0.404644 0.779937 -0.272216 1.310779 0.098531 -0.192685 0.041092 0.000000 0.000000 0.000000 -0.099633 1.979279 2.385213 -12.549308 9.121558 11.415094 5.749129 -22.932784 -29.965478 0.000000 0.000000 0.000000 0.833489 0.393890 2.164299 -1.513324 1.347014 -8.081675 0.323210 -3.021065 -2.378752 2.474429 -6.939402 -65.635864 33.082793 -27.001022 3.540313 0.000000 0.000000 0.000000 1.318255 0.372076 1.981789 -4.115861 1.678834 15.256225 -22.854740 -6.075375 1.622171 12.583861 9.490947 55.388354 -1.089533 28.115745 26.425925 0.000000 0.000000 0.000000 
4.816781 95.688820 -1.493095 0.000000 0.000000 0.000000 -1.958078 10.099440 -1.298854 -31.477224 -10.084065 0.703312 35.827320 8.781762 -3.942530 24.965810 -2.817492 6.984159 -21.213413 2.445107 -3.658296 0.000000 0.000000 0.000000 -2.738595 9.571159 -0.847858 -10.227599 -8.552879 6.575860 28.677301 1.118183 1.534098 -0.091498 -13.306419 -3.868060 -18.579040 3.156671 -7.313573 0.000000 0.000000 0.000000 -3.323259 12.973430 -1.074922 8.927009 -0.897404 -0.184940 0.724228 -0.279639 1.242770 0.009285 -0.248221 0.058306 0.000000 0.000000 0.000000 -0.095816 1.997953 2.235077 -12.689334 8.875800 11.342580 5.925602 -23.289103 -30.050575 0.000000 0.000000 0.000000 0.866562 0.402383 2.209923 -1.519476 1.647528 -8.118362 -0.460100 -3.349994 -2.704480 3.178275 -6.300388 -65.405987 33.107593 -26.800279 3.733480 0.000000 0.000000 0.000000 1.208237 0.382552 1.870223 -4.070330 1.843693 14.363613 -22.867634 -5.688544 0.952593 11.844346 10.116518 55.714263 -2.268164 30.947095 26.753912 0.000000 0.000000 0.000000 
4.864512 96.647278 1.559881 0.000000 0.000000 0.000000 -1.864626 8.163541 -0.981670 -32.187079 -6.605532 -1.059351 27.052125 10.500804 -1.266065 22.244844 -2.237665 6.562600 -13.697495 2.251044 -3.516575 0.000000 0.000000 0.000000 -2.247879 6.703882 -0.622093 -8.671668 -9.265335 5.661029 27.615997 2.209019 2.353576 1.222739 -11.215948 -4.346536 -21.607153 3.535256 -6.787077 0.000000 0.000000 0.000000 -2.265113 11.084435 -1.399893 8.516970 -0.119840 0.209761 0.738413 -0.232300 1.147409 -0.035262 -0.430153 0.096664 0.000000 0.000000 0.000000 -0.081636 2.047187 2.155303 -12.916983 8.734534 11.129500 5.643591 -23.566425 -30.281422 0.000000 0.000000 0.000000 0.857283 0.414898 2.088398 -1.442000 2.242439 -8.630248 -1.110168 -4.057703 -3.192173 4.063039 -4.635108 -65.375210 33.960541 -26.605590 4.498819 0.000000 0.000000 0.000000 1.017241 0.393773 1.648311 -3.969694 2.493336 12.840340 -22.504486 -5.818569 0.841538 11.666544 11.403364 55.968336 -4.284703 33.701557 27.388497 0.000000 0.000000 0.000000 
5.004537 97.538284 4.634861 0.000000 0.000000 0.000000 -1.691729 5.761888 -0.436164 -33.845107 -1.892293 -2.575034 19.099454 10.550096 2.284152 24.254840 -3.158814 3.037112 -8.140517 1.579442 -1.293177 0.000000 0.000000 0.000000 -1.742490 3.684014 -0.282404 -6.377235 -10.409029 4.476792 25.691692 3.883029 3.447426 1.086535 -7.938772 -4.973577 -23.829698 4.222572 -6.500469 0.000000 0.000000 0.000000 -1.529896 8.874624 -1.515117 8.389631 0.765143 0.609490 0.911464 -0.162506 1.117828 0.018058 -0.754239 0.137907 0.000000 0.000000 0.000000 -0.088274 2.080228 2.238119 -13.104990 8.729789 10.804243 4.844615 -23.855221 -30.510325 0.000000 0.000000 0.000000 0.762587 0.418892 1.905387 -1.286071 3.047583 -9.363606 -1.305972 -4.790174 -3.569994 4.946162 -2.042342 -65.609151 35.502538 -26.566251 5.692861 0.000000 0.000000 0.000000 0.836940 0.403005 1.454083 -3.873630 3.556703 11.041819 -22.004272 -6.413388 1.137867 11.826717 12.749606 56.076478 -6.617019 35.114180 28.016126 0.000000 0.000000 0.000000 
